# xmcd CD database file
#
# Track frame offsets:
#	150
#	18755
#	46480
#	70145
#	89470
#	117403
#	140280
#	160178
#	183893
#	210705
#
# Disc length: 3303 seconds
#
# Revision: 0
# Processed by: cddbd v1.5.2PL0 Copyright (c) Steve Scherf et al.
# Submitted via: CDex 1.60beta1-cs1
#
DISCID=820ce50a
DTITLE=The Neil Cowley Trio - Loud Louder Stop
DYEAR=2008
DGENRE=Jazz
TTITLE0=His Nibs
TTITLE1=Dinosaur Die
TTITLE2=Scaredy Cat
TTITLE3=Ginger Sheep
TTITLE4=Clumsy Couple
TTITLE5=Captain Backfire
TTITLE6=Well
TTITLE7=We Are Here to Make Plastic
TTITLE8=Synaesthesia Traffic
TTITLE9=Streets Paved With Half Baguettes Pt 2
EXTD=YEAR: 2008
EXTT0=
EXTT1=
EXTT2=
EXTT3=
EXTT4=
EXTT5=
EXTT6=
EXTT7=
EXTT8=
EXTT9=
PLAYORDER=
